<?xml version="1.0" encoding="UTF-8"?>
<svg width="1200" height="740" viewBox="0 0 1200 740" xmlns="http://www.w3.org/2000/svg">
  <defs>
    <style>
      .ink { fill:#121212; stroke:#121212; }
      .txt { fill:#121212; font-family: Inter, -apple-system, Segoe UI, Roboto, Arial; }
    </style>
  </defs>
  <rect width="100%" height="100%" fill="#FAF8F6"/>
  <!-- Grid -->
  <g stroke="rgba(0,0,0,0.12)" stroke-width="2">
    <line x1="0" y1="0" x2="0" y2="740"/><line x1="80" y1="0" x2="80" y2="740"/><line x1="160" y1="0" x2="160" y2="740"/><line x1="240" y1="0" x2="240" y2="740"/><line x1="320" y1="0" x2="320" y2="740"/><line x1="400" y1="0" x2="400" y2="740"/><line x1="480" y1="0" x2="480" y2="740"/><line x1="560" y1="0" x2="560" y2="740"/><line x1="640" y1="0" x2="640" y2="740"/><line x1="720" y1="0" x2="720" y2="740"/><line x1="800" y1="0" x2="800" y2="740"/><line x1="880" y1="0" x2="880" y2="740"/><line x1="960" y1="0" x2="960" y2="740"/><line x1="1040" y1="0" x2="1040" y2="740"/><line x1="1120" y1="0" x2="1120" y2="740"/>
    <line x1="0" y1="0" x2="1200" y2="0"/><line x1="0" y1="80" x2="1200" y2="80"/><line x1="0" y1="160" x2="1200" y2="160"/><line x1="0" y1="240" x2="1200" y2="240"/><line x1="0" y1="320" x2="1200" y2="320"/><line x1="0" y1="400" x2="1200" y2="400"/><line x1="0" y1="480" x2="1200" y2="480"/><line x1="0" y1="560" x2="1200" y2="560"/><line x1="0" y1="640" x2="1200" y2="640"/><line x1="0" y1="720" x2="1200" y2="720"/>
  </g>
  <!-- Corners -->
  <g stroke="#121212" stroke-width="6" fill="none">
    <path d="M24,24 h40 M24,24 v40"/>
    <path d="M1176,24 h-40 M1176,24 v40"/>
    <path d="M24,716 h40 M24,716 v-40"/>
    <path d="M1176,716 h-40 M1176,716 v-40"/>
  </g>
  <!-- Title + underline -->
  <text x="360" y="170" font-size="96" font-weight="800" class="txt">Lokus</text>
  <rect x="360" y="258" width="480" height="22" fill="#6C63FF"/>
  <!-- Tagline chip -->
  <rect x="360" y="300" width="650" height="46" fill="#FFD166"/>
  <text x="378" y="332" font-size="32" class="txt">Knowledge Management, Reimagined</text>
  <!-- Drag banner (with hard shadow) -->
  <rect x="370" y="420" width="560" height="76" fill="#00E0CA"/>
  <rect x="360" y="410" width="560" height="76" fill="#FAF8F6" stroke="#121212" stroke-width="6"/>
  <text x="380" y="458" font-size="28" class="txt">DRAG → Applications</text>
  <!-- App icon plate (shadow) -->
  <rect x="102" y="194" width="220" height="240" fill="#6C63FF"/>
  <rect x="88" y="180" width="220" height="240" fill="#FAF8F6" stroke="#121212" stroke-width="8"/>
  <circle cx="198" cy="300" r="76" fill="#00E0CA" stroke="#121212" stroke-width="10"/>
  <text x="198" y="322" text-anchor="middle" font-size="90" font-weight="800" class="txt">L</text>
  <text x="88" y="462" font-size="28" class="txt">Lokus.app</text>
  <!-- Applications block -->
  <rect x="854" y="264" width="230" height="170" fill="#FF5858"/>
  <rect x="840" y="250" width="230" height="170" fill="#FAF8F6" stroke="#121212" stroke-width="8"/>
  <rect x="858" y="236" width="90" height="28" fill="#FFD166" stroke="#121212" stroke-width="6"/>
  <rect x="852" y="258" width="206" height="146" fill="#6C63FF" stroke="#121212" stroke-width="6"/>
  <text x="870" y="462" font-size="28" class="txt">Applications</text>
  <!-- Arrow -->
  <path d="M 360 360 H 816 l -30 -18 v 36 z" fill="#121212"/>
  <!-- Version -->
  <text x="1080" y="700" font-size="28" class="txt">v1.0.2</text>
</svg>
